<mxfile host="app.diagrams.net" agent="Mozilla/5.0 (Windows NT 10.0; Win64; x64) AppleWebKit/537.36 (KHTML, like Gecko) Chrome/136.0.0.0 Safari/537.36 Edg/136.0.0.0" version="27.0.1">
  <diagram name="ページ1" id="E7BrTkLixouV0be_wUWo">
    <mxGraphModel dx="1034" dy="578" grid="1" gridSize="10" guides="1" tooltips="1" connect="1" arrows="1" fold="1" page="1" pageScale="1" pageWidth="827" pageHeight="1169" math="0" shadow="0">
      <root>
        <mxCell id="0" />
        <mxCell id="1" parent="0" />
        <mxCell id="8fi8GzwZuvhR6L9CzxKB-1" value="基本アーキテクチャ図" style="rounded=0;whiteSpace=wrap;html=1;fontSize=19;align=center;" vertex="1" parent="1">
          <mxGeometry x="120" y="40" width="230" height="80" as="geometry" />
        </mxCell>
        <mxCell id="8fi8GzwZuvhR6L9CzxKB-2" value="ログイン(メイン)" style="rounded=0;whiteSpace=wrap;html=1;fontSize=19;align=center;" vertex="1" parent="1">
          <mxGeometry x="350" y="40" width="540" height="80" as="geometry" />
        </mxCell>
        <mxCell id="8fi8GzwZuvhR6L9CzxKB-3" value="&lt;font style=&quot;font-size: 19px;&quot;&gt;①&lt;/font&gt;" style="text;html=1;align=center;verticalAlign=middle;resizable=0;points=[];autosize=1;strokeColor=none;fillColor=none;fontFamily=Helvetica;fontSize=12;fontColor=default;" vertex="1" parent="1">
          <mxGeometry x="140" y="170" width="40" height="40" as="geometry" />
        </mxCell>
        <mxCell id="8fi8GzwZuvhR6L9CzxKB-4" value="&lt;font style=&quot;font-size: 19px;&quot;&gt;Post&lt;/font&gt;" style="text;html=1;align=center;verticalAlign=middle;resizable=0;points=[];autosize=1;strokeColor=none;fillColor=none;fontFamily=Helvetica;fontSize=12;fontColor=default;" vertex="1" parent="1">
          <mxGeometry x="350" y="210" width="60" height="40" as="geometry" />
        </mxCell>
        <mxCell id="8fi8GzwZuvhR6L9CzxKB-5" value="" style="endArrow=classic;html=1;rounded=0;fontFamily=Helvetica;fontSize=12;fontColor=default;" edge="1" parent="1">
          <mxGeometry width="50" height="50" relative="1" as="geometry">
            <mxPoint x="120" y="214.5" as="sourcePoint" />
            <mxPoint x="210" y="214.5" as="targetPoint" />
          </mxGeometry>
        </mxCell>
        <mxCell id="8fi8GzwZuvhR6L9CzxKB-6" value="&lt;div&gt;&lt;font style=&quot;font-size: 19px;&quot;&gt;Home&lt;/font&gt;&lt;/div&gt;&lt;div&gt;&lt;font style=&quot;font-size: 19px;&quot;&gt;doPost()&lt;/font&gt;&lt;/div&gt;" style="strokeWidth=2;html=1;shape=mxgraph.flowchart.terminator;whiteSpace=wrap;rounded=0;strokeColor=default;align=center;verticalAlign=middle;fontFamily=Helvetica;fontSize=12;fontColor=default;fillColor=default;" vertex="1" parent="1">
          <mxGeometry x="210" y="180" width="120" height="70" as="geometry" />
        </mxCell>
        <mxCell id="8fi8GzwZuvhR6L9CzxKB-7" value="&lt;span style=&quot;font-size: 19px;&quot;&gt;②&lt;/span&gt;" style="text;html=1;align=center;verticalAlign=middle;resizable=0;points=[];autosize=1;strokeColor=none;fillColor=none;fontFamily=Helvetica;fontSize=12;fontColor=default;" vertex="1" parent="1">
          <mxGeometry x="360" y="170" width="40" height="40" as="geometry" />
        </mxCell>
        <mxCell id="8fi8GzwZuvhR6L9CzxKB-8" value="&lt;span style=&quot;font-size: 19px;&quot;&gt;Servlet&lt;/span&gt;" style="text;html=1;align=center;verticalAlign=middle;resizable=0;points=[];autosize=1;strokeColor=none;fillColor=none;fontFamily=Helvetica;fontSize=12;fontColor=default;" vertex="1" parent="1">
          <mxGeometry x="230" y="140" width="80" height="40" as="geometry" />
        </mxCell>
        <mxCell id="8fi8GzwZuvhR6L9CzxKB-9" value="" style="endArrow=classic;html=1;rounded=0;fontFamily=Helvetica;fontSize=12;fontColor=default;" edge="1" parent="1">
          <mxGeometry width="50" height="50" relative="1" as="geometry">
            <mxPoint x="330" y="214.5" as="sourcePoint" />
            <mxPoint x="435" y="214.5" as="targetPoint" />
          </mxGeometry>
        </mxCell>
        <mxCell id="8fi8GzwZuvhR6L9CzxKB-11" value="&lt;font style=&quot;font-size: 19px;&quot;&gt;LoginLogic&lt;/font&gt;&lt;div&gt;&lt;font style=&quot;font-size: 19px;&quot;&gt;execute()&lt;/font&gt;&lt;/div&gt;" style="strokeWidth=2;html=1;shape=mxgraph.flowchart.terminator;whiteSpace=wrap;rounded=0;strokeColor=default;align=center;verticalAlign=middle;fontFamily=Helvetica;fontSize=12;fontColor=default;fillColor=default;" vertex="1" parent="1">
          <mxGeometry x="440" y="175" width="190" height="75" as="geometry" />
        </mxCell>
        <mxCell id="8fi8GzwZuvhR6L9CzxKB-12" value="&lt;font style=&quot;font-size: 19px;&quot;&gt;UserDAO&lt;/font&gt;&lt;div&gt;&lt;span style=&quot;font-size: 19px;&quot;&gt;findLoginUser()&lt;/span&gt;&lt;/div&gt;" style="strokeWidth=2;html=1;shape=mxgraph.flowchart.terminator;whiteSpace=wrap;rounded=0;strokeColor=default;align=center;verticalAlign=middle;fontFamily=Helvetica;fontSize=12;fontColor=default;fillColor=default;" vertex="1" parent="1">
          <mxGeometry x="730" y="175" width="210" height="75" as="geometry" />
        </mxCell>
        <mxCell id="8fi8GzwZuvhR6L9CzxKB-13" value="&lt;span style=&quot;font-size: 19px;&quot;&gt;③&lt;/span&gt;" style="text;html=1;align=center;verticalAlign=middle;resizable=0;points=[];autosize=1;strokeColor=none;fillColor=none;fontFamily=Helvetica;fontSize=12;fontColor=default;" vertex="1" parent="1">
          <mxGeometry x="660" y="170" width="40" height="40" as="geometry" />
        </mxCell>
        <mxCell id="8fi8GzwZuvhR6L9CzxKB-14" value="" style="endArrow=classic;html=1;rounded=0;fontFamily=Helvetica;fontSize=12;fontColor=default;" edge="1" parent="1">
          <mxGeometry width="50" height="50" relative="1" as="geometry">
            <mxPoint x="630" y="214.5" as="sourcePoint" />
            <mxPoint x="730" y="214.5" as="targetPoint" />
          </mxGeometry>
        </mxCell>
        <mxCell id="8fi8GzwZuvhR6L9CzxKB-16" value="&lt;span style=&quot;font-size: 19px;&quot;&gt;BO&lt;/span&gt;" style="text;html=1;align=center;verticalAlign=middle;resizable=0;points=[];autosize=1;strokeColor=none;fillColor=none;fontFamily=Helvetica;fontSize=12;fontColor=default;" vertex="1" parent="1">
          <mxGeometry x="510" y="140" width="50" height="40" as="geometry" />
        </mxCell>
        <mxCell id="8fi8GzwZuvhR6L9CzxKB-17" value="&lt;span style=&quot;font-size: 19px;&quot;&gt;DAO&lt;/span&gt;" style="text;html=1;align=center;verticalAlign=middle;resizable=0;points=[];autosize=1;strokeColor=none;fillColor=none;fontFamily=Helvetica;fontSize=12;fontColor=default;" vertex="1" parent="1">
          <mxGeometry x="805" y="130" width="60" height="40" as="geometry" />
        </mxCell>
        <mxCell id="8fi8GzwZuvhR6L9CzxKB-18" value="&lt;font style=&quot;font-size: 18px;&quot;&gt;ユーザー情報&lt;/font&gt;" style="strokeWidth=2;html=1;shape=mxgraph.flowchart.database;whiteSpace=wrap;rounded=0;strokeColor=default;align=center;verticalAlign=middle;fontFamily=Helvetica;fontSize=12;fontColor=default;fillColor=default;" vertex="1" parent="1">
          <mxGeometry x="1020" y="160" width="110" height="80" as="geometry" />
        </mxCell>
        <mxCell id="8fi8GzwZuvhR6L9CzxKB-19" value="&lt;span style=&quot;font-size: 19px;&quot;&gt;User&lt;/span&gt;&lt;br&gt;&lt;div&gt;&lt;span style=&quot;font-size: 19px;&quot;&gt;テーブル&lt;/span&gt;&lt;/div&gt;" style="text;html=1;align=center;verticalAlign=middle;resizable=0;points=[];autosize=1;strokeColor=none;fillColor=none;fontFamily=Helvetica;fontSize=12;fontColor=default;" vertex="1" parent="1">
          <mxGeometry x="1025" y="110" width="100" height="60" as="geometry" />
        </mxCell>
        <mxCell id="8fi8GzwZuvhR6L9CzxKB-20" value="" style="endArrow=classic;startArrow=classic;html=1;rounded=0;fontFamily=Helvetica;fontSize=12;fontColor=default;exitX=1;exitY=0.5;exitDx=0;exitDy=0;exitPerimeter=0;entryX=-0.018;entryY=0.665;entryDx=0;entryDy=0;entryPerimeter=0;" edge="1" parent="1" source="8fi8GzwZuvhR6L9CzxKB-12" target="8fi8GzwZuvhR6L9CzxKB-18">
          <mxGeometry width="50" height="50" relative="1" as="geometry">
            <mxPoint x="950" y="219" as="sourcePoint" />
            <mxPoint x="1020" y="210" as="targetPoint" />
          </mxGeometry>
        </mxCell>
        <mxCell id="8fi8GzwZuvhR6L9CzxKB-21" value="&lt;span style=&quot;font-size: 19px;&quot;&gt;④&lt;/span&gt;" style="text;html=1;align=center;verticalAlign=middle;resizable=0;points=[];autosize=1;strokeColor=none;fillColor=none;fontFamily=Helvetica;fontSize=12;fontColor=default;" vertex="1" parent="1">
          <mxGeometry x="980" width="40" height="40" as="geometry" />
        </mxCell>
      </root>
    </mxGraphModel>
  </diagram>
</mxfile>
